<svg xmlns="http://www.w3.org/2000/svg" viewBox="0 0 1200 720" role="img" aria-label="ElementArk LifeOS logo companion vector">
  <defs>
    <linearGradient id="eaGrad" x1="0%" y1="0%" x2="100%" y2="100%">
      <stop offset="0%" stop-color="#9B7BFF"></stop>
      <stop offset="48%" stop-color="#00D4FF"></stop>
      <stop offset="100%" stop-color="#00E676"></stop>
    </linearGradient>
    <filter id="glow"><feGaussianBlur stdDeviation="5" result="b"></feGaussianBlur><feMerge><feMergeNode in="b"></feMergeNode><feMergeNode in="SourceGraphic"></feMergeNode></feMerge></filter>
  </defs>
  <rect width="1200" height="720" fill="#0A0A0A"></rect>
  <g fill="none" stroke="url(#eaGrad)" stroke-width="26" stroke-linecap="round" filter="url(#glow)">
    <path d="M460 130 C285 260 420 415 525 442"></path>
    <path d="M460 130 C690 145 785 290 860 395"></path>
    <path d="M525 442 C690 440 770 398 875 335"></path>
  </g>
  <g fill="none" stroke="url(#eaGrad)" stroke-width="5" stroke-linecap="round" filter="url(#glow)">
    <circle cx="462" cy="128" r="47"></circle><circle cx="875" cy="335" r="47"></circle><circle cx="525" cy="442" r="47"></circle>
    <path d="M442 143 q20 -30 40 0"></path><path d="M442 170 q20 -32 40 0"></path>
    <rect x="851" y="314" width="47" height="31" rx="3"></rect><path d="M840 354 h70"></path>
    <path d="M497 444 l28 -27 31 27"></path><path d="M507 444 v34 h39 v-34"></path><path d="M520 459 h10 v10 h-10zM535 459 h10 v10h-10z"></path>
  </g>
  <text x="600" y="585" text-anchor="middle" font-family="Arial, Helvetica, sans-serif" font-size="78" letter-spacing="18" fill="#ECEDEE">ELEMENT<tspan fill="url(#eaGrad)">ARK</tspan></text>
  <text x="600" y="635" text-anchor="middle" font-family="Arial, Helvetica, sans-serif" font-size="22" letter-spacing="9" fill="#ECEDEE"><tspan fill="#00D4FF">LIFEOS</tspan> · ONE <tspan fill="#00D4FF">AI</tspan> OPERATING SYSTEM TO RUN YOUR LIFE.</text>
</svg>