<svg xmlns="http://www.w3.org/2000/svg" viewBox="0 0 900 260" role="img" aria-label="Work Personal Home icon triad">
<rect width="900" height="260" fill="#0A0A0A"></rect>
<g fill="none" stroke="#00D4FF" stroke-width="10" stroke-linecap="round" stroke-linejoin="round"><rect x="87" y="45" width="128" height="82" rx="10"></rect><path d="M58 145 h186 q-8 34-45 34 h-96 q-37 0-45-34z"></path></g>
<text x="151" y="230" text-anchor="middle" font-family="Arial" font-size="28" letter-spacing="10" fill="#00D4FF">WORK</text>
<line x1="310" y1="40" x2="310" y2="205" stroke="#4a4d55" stroke-width="2"></line>
<g fill="none" stroke="#9B7BFF" stroke-width="10" stroke-linecap="round" stroke-linejoin="round"><circle cx="450" cy="78" r="34"></circle><path d="M388 180 c0-70 124-70 124 0"></path><path d="M450 183 c-36-30-50-55-25-72 12-8 25 0 25 15 0-15 13-23 25-15 25 17 11 42-25 72z"></path></g>
<text x="450" y="230" text-anchor="middle" font-family="Arial" font-size="28" letter-spacing="10" fill="#9B7BFF">PERSONAL</text>
<line x1="590" y1="40" x2="590" y2="205" stroke="#4a4d55" stroke-width="2"></line>
<g fill="none" stroke="#00E676" stroke-width="10" stroke-linecap="round" stroke-linejoin="round"><path d="M685 118 l85-70 85 70"></path><path d="M710 113 v75 h120 v-75"></path><path d="M747 137 h18 v18 h-18zM777 137 h18 v18h-18z"></path></g>
<text x="770" y="230" text-anchor="middle" font-family="Arial" font-size="28" letter-spacing="10" fill="#00E676">HOME</text>
</svg>